<svg xmlns="http://www.w3.org/2000/svg" xmlns:xlink="http://www.w3.org/1999/xlink" version="1.1" id="Layer_1" x="0px" y="0px" style="enable-background:new 0 0 512 512;" xml:space="preserve" viewBox="0 56.06 134.99 399.9">

<g>
	<g>
		<path d="M93.576,211.96V82.136c0-14.405-11.676-26.081-26.082-26.081S41.413,67.731,41.413,82.136V211.96    C14.734,211.96,0,231.154,0,250.767v166.378c0,21.433,17.375,38.806,38.806,38.806h57.376c21.433,0,38.806-17.374,38.806-38.806    V250.767C134.989,231.363,120.511,211.96,93.576,211.96z M103.137,400.916c0,4.151-3.366,7.517-7.517,7.517H39.368    c-4.151,0-7.517-3.366-7.517-7.517v-19.741c0-4.151,3.366-7.517,7.517-7.517H95.62c4.151,0,7.517,3.366,7.517,7.517V400.916z     M103.137,343.826c0,4.151-3.366,7.517-7.517,7.517H39.368c-4.151,0-7.517-3.366-7.517-7.517v-19.741    c0-4.151,3.366-7.517,7.517-7.517H95.62c4.151,0,7.517,3.366,7.517,7.517V343.826z M103.137,286.737    c0,4.151-3.366,7.517-7.517,7.517H39.368c-4.151,0-7.517-3.366-7.517-7.517v-19.741c0-4.151,3.366-7.517,7.517-7.517H95.62    c4.151,0,7.517,3.366,7.517,7.517V286.737z"/>
	</g>
</g>
</svg>