<?xml version="1.0" standalone="no"?>
<!DOCTYPE svg PUBLIC "-//W3C//DTD SVG 20010904//EN"
 "http://www.w3.org/TR/2001/REC-SVG-20010904/DTD/svg10.dtd">
<svg version="1.0" xmlns="http://www.w3.org/2000/svg"
 width="1280.000000pt" height="640.000000pt" viewBox="0 0 1280.000000 640.000000"
 preserveAspectRatio="xMidYMid meet">
<metadata>
Created by potrace 1.15, written by Peter Selinger 2001-2017
</metadata>
<g transform="translate(0.000000,640.000000) scale(0.100000,-0.100000)"
fill="#000000" stroke="none">
<path d="M3565 5336 c-106 -30 -101 -26 -108 -111 -4 -42 -9 -80 -12 -85 -6
-10 -246 -105 -590 -234 -448 -167 -1052 -415 -1173 -483 -78 -43 -193 -91
-250 -104 -23 -5 -98 -14 -165 -19 -67 -6 -167 -19 -222 -30 -154 -31 -340
-49 -563 -57 l-203 -6 -43 -66 c-59 -91 -60 -95 -26 -130 37 -37 38 -65 3
-150 -25 -62 -27 -78 -31 -256 l-4 -190 -38 -32 c-91 -78 -133 -209 -134 -418
0 -194 11 -396 26 -482 13 -71 14 -74 72 -122 69 -58 130 -129 158 -184 64
-126 534 -211 1384 -250 l92 -4 -6 119 c-6 142 8 256 49 383 112 352 394 622
756 722 90 26 112 28 278 28 165 0 188 -2 278 -27 201 -56 361 -152 504 -302
140 -145 222 -293 274 -492 21 -79 24 -109 23 -279 -1 -127 -6 -214 -16 -263
l-15 -73 3006 7 c1653 4 3007 8 3009 9 1 1 -8 37 -20 81 -19 67 -22 105 -22
259 -1 166 1 187 27 279 117 421 467 736 885 797 119 17 325 7 432 -21 239
-63 453 -205 601 -399 70 -92 154 -267 185 -386 24 -88 27 -119 27 -260 1
-116 -4 -181 -16 -234 -10 -41 -16 -75 -15 -76 2 -1 62 2 133 6 266 16 458 45
525 79 48 24 97 81 127 146 l24 52 -16 157 c-15 152 -15 163 4 284 63 388 50
680 -35 802 -134 193 -526 336 -1429 519 -737 149 -1322 209 -2033 210 -228 0
-226 0 -347 85 -187 131 -1045 607 -1471 815 -383 187 -788 281 -1439 332
-208 17 -1106 16 -1400 0 -121 -7 -314 -19 -430 -27 -302 -22 -286 -22 -341
10 -140 81 -187 94 -269 71z m1885 -333 c6 -37 38 -238 71 -446 32 -209 66
-422 75 -474 9 -52 15 -96 13 -97 -11 -9 -1699 29 -1951 44 -206 13 -417 36
-485 54 -98 26 -198 119 -249 231 -35 75 -36 172 -5 255 17 45 30 61 68 86 83
54 135 80 253 127 341 136 858 230 1460 267 269 16 270 16 511 18 l227 2 12
-67z m630 47 c264 -18 777 -110 1029 -186 186 -56 445 -188 756 -387 211 -134
274 -181 250 -185 -75 -12 -133 -50 -162 -106 -19 -35 -21 -136 -4 -179 l11
-27 -907 2 -906 3 -59 160 c-110 302 -298 878 -298 916 0 6 95 2 290 -11z"/>
</g>
</svg>
